<svg width="85" height="69" viewBox="0 0 85 69" fill="none" xmlns="http://www.w3.org/2000/svg">
<g id="Vehicle">
<g id="Group">
<path id="XMLID_00000059303173731993182230000003832149686412881305_" d="M80.0049 36.2681L72.1205 31.8258L76.4943 29.3008L79.9935 31.3285L80.0049 36.2681Z" fill="#263238"/>
<path id="Vector" d="M42.7549 57.7779V58.9593L37.8669 56.1369L34.8694 53.329L39.2432 50.8037L42.7422 52.8317V57.771L42.7549 57.7779Z" fill="#263238"/>
<g id="XMLID_1068_">
<path id="XMLID_1075_" d="M39.5001 56.746L40.6309 54.5002L37.9406 52.943L37.9403 52.9436C37.0846 52.4513 35.9454 52.5074 34.6941 53.2296C32.0372 54.7638 29.8831 58.7206 29.8828 62.0676C29.8825 63.8204 30.4739 65.0569 31.4183 65.6181L31.4175 65.6194L31.4553 65.6414C31.4571 65.6424 31.459 65.6435 31.4608 65.6446L34.2188 67.2369L35.4113 64.8678C37.6688 63.1391 39.4124 59.7316 39.5001 56.746Z" fill="#37474F"/>
<path id="XMLID_1074_" d="M39.5001 56.746L40.6309 54.5002L37.9406 52.943L37.9403 52.9436C37.0846 52.4513 35.9454 52.5074 34.6941 53.2296C32.0372 54.7638 29.8831 58.7206 29.8828 62.0676C29.8825 63.8204 30.4739 65.0569 31.4183 65.6181L31.4175 65.6194L31.4553 65.6414C31.4571 65.6424 31.459 65.6435 31.4608 65.6446L34.2188 67.2369L35.4113 64.8678C37.6688 63.1391 39.4124 59.7316 39.5001 56.746Z" fill="#263238"/>
<path id="XMLID_1073_" d="M42.3047 58.1268C42.3047 61.0124 40.7023 64.3525 38.5575 66.2005C38.5532 66.2026 38.5511 66.2068 38.5487 66.2092C38.2085 66.5 37.8553 66.7562 37.4936 66.965C34.8362 68.5005 32.6805 67.0296 32.6826 63.6831C32.6826 61.1549 33.9122 58.2757 35.6589 56.359C35.6631 56.3547 35.6697 56.3505 35.674 56.3439C36.236 55.73 36.8499 55.2155 37.4936 54.8449C40.1511 53.3115 42.3047 54.7804 42.3047 58.1268Z" fill="#37474F"/>
<path id="XMLID_1072_" d="M37.494 56.8651C39.1849 55.8888 40.5557 56.9061 40.5557 59.1376C40.5557 61.3692 39.1849 63.9696 37.494 64.9459C35.803 65.9222 34.4323 64.9047 34.4323 62.6734C34.4323 60.4421 35.803 57.8417 37.494 56.8651Z" fill="#455A64"/>
<path id="XMLID_1071_" d="M38.8775 60.2879C38.7612 61.3975 38.0469 62.5739 37.2836 62.9142C36.9476 63.063 36.6589 63.0263 36.4508 62.8441C36.1825 62.6146 36.0456 62.1457 36.1109 61.5223C36.2272 60.4127 36.9394 59.236 37.7048 58.896C37.9115 58.8029 38.1021 58.7818 38.2647 58.8225C38.2647 58.8225 38.2671 58.8206 38.2668 58.8228C38.7054 58.9317 38.9621 59.4802 38.8775 60.2879Z" fill="#FAFAFA"/>
<path id="XMLID_00000117667763265870715050000017565305777530786489_" d="M38.6041 60.1446C38.4878 61.2542 37.7734 62.4306 37.0102 62.7709C36.8037 62.8618 36.615 62.8854 36.4502 62.8441C36.1819 62.6146 36.045 62.1456 36.1103 61.5223C36.2266 60.4127 36.9388 59.236 37.7042 58.896C37.9109 58.8029 38.1015 58.7818 38.2641 58.8225C38.2641 58.8225 38.2665 58.8206 38.2662 58.8228C38.5322 59.0546 38.6691 59.5236 38.6041 60.1446Z" fill="#E0E0E0"/>
<path id="XMLID_1069_" d="M42.3047 58.1269C42.3047 61.0125 40.7023 64.3526 38.5575 66.2006C39.828 64.8182 41.1438 62.5031 41.6091 60.2956C42.0163 58.3659 41.8632 55.5966 40.2072 54.8965C38.5641 54.201 36.3653 55.6717 35.674 56.3437C36.236 55.7298 36.8499 55.2154 37.4936 54.8447C40.1511 53.3116 42.3047 54.7805 42.3047 58.1269Z" fill="#455A64"/>
</g>
<g id="XMLID_00000108277408895100502180000009158093056166712706_">
<path id="XMLID_00000052826668993195114920000016761792389413196936_" d="M76.7521 35.2412L77.8828 32.9953L75.1926 31.4382L75.1923 31.4387C74.3368 30.9464 73.1973 31.0025 71.9461 31.7247C69.2891 33.2589 67.135 37.2158 67.1347 40.5627C67.1345 42.3155 67.7259 43.552 68.6702 44.1132L71.471 45.732L72.6636 43.3629C74.921 41.6345 76.6646 38.2267 76.7521 35.2412Z" fill="#37474F"/>
<path id="XMLID_00000085951123176871251160000006158191764054636200_" d="M76.7521 35.2412L77.8828 32.9953L75.1926 31.4382L75.1923 31.4387C74.3368 30.9464 73.1973 31.0025 71.9461 31.7247C69.2891 33.2589 67.135 37.2158 67.1347 40.5627C67.1345 42.3155 67.7259 43.552 68.6702 44.1132L71.471 45.732L72.6636 43.3629C74.921 41.6345 76.6646 38.2267 76.7521 35.2412Z" fill="#263238"/>
<path id="XMLID_00000081607840285405170320000016734853743333544614_" d="M79.5566 36.6221C79.5566 39.5077 77.9543 42.8478 75.8094 44.6958C75.8052 44.6979 75.8031 44.7021 75.8007 44.7045C75.4605 44.9953 75.1073 45.2515 74.7456 45.4603C72.0881 46.9958 69.9324 45.5248 69.9345 42.1784C69.9345 39.6502 71.1641 36.7709 72.9106 34.8542C72.9148 34.85 72.9214 34.8455 72.9256 34.8392C73.4877 34.2253 74.1016 33.7108 74.7453 33.3402C77.4033 31.8065 79.5566 33.2754 79.5566 36.6221Z" fill="#37474F"/>
<path id="XMLID_00000066507535495731036410000005202395057760991648_" d="M74.7459 35.3602C76.4368 34.3839 77.8076 35.4012 77.8076 37.6327C77.8076 39.8643 76.4368 42.4647 74.7459 43.4408C73.055 44.4171 71.6842 43.3995 71.6842 41.1682C71.6842 38.9369 73.055 36.3365 74.7459 35.3602Z" fill="#455A64"/>
<path id="XMLID_00000055708003457363141390000004449919379065310338_" d="M76.1295 38.783C76.0131 39.8926 75.2988 41.069 74.5355 41.4093C74.1995 41.5581 73.9108 41.5214 73.7028 41.3392C73.4344 41.1098 73.2975 40.6408 73.3628 40.0174C73.4791 38.9078 74.1913 37.7311 74.9567 37.3911C75.1637 37.298 75.354 37.2769 75.5166 37.3176C75.5166 37.3176 75.519 37.3158 75.5188 37.3179C75.9576 37.4268 76.2141 37.9756 76.1295 38.783Z" fill="#FAFAFA"/>
<path id="XMLID_00000070078519483090623480000017939916291384303748_" d="M75.8561 38.6395C75.7397 39.749 75.0254 40.9255 74.2622 41.2657C74.0557 41.3567 73.8669 41.3802 73.7022 41.3392C73.4339 41.1098 73.2969 40.6408 73.3622 40.0174C73.4786 38.9078 74.1908 37.7311 74.9561 37.3911C75.1631 37.298 75.3535 37.2769 75.5161 37.3176C75.5161 37.3176 75.5185 37.3157 75.5182 37.3179C75.7839 37.5492 75.9211 38.0182 75.8561 38.6395Z" fill="#E0E0E0"/>
<path id="XMLID_00000031903845087617666690000011380774947680339072_" d="M79.5566 36.6222C79.5566 39.5078 77.9543 42.8479 75.8094 44.6959C77.08 43.3132 78.3958 40.9983 78.8611 38.7908C79.2679 36.8612 79.1151 34.0919 77.4591 33.3918C75.816 32.6963 73.6172 34.167 72.9259 34.839C73.488 34.2251 74.1018 33.7107 74.7456 33.34C77.4033 31.8066 79.5566 33.2755 79.5566 36.6222Z" fill="#455A64"/>
</g>
</g>
<g id="Group_2">
<g id="Group_3">
<path id="Vector_2" d="M10.5412 49.2903C22.8874 56.4151 28.5001 53.1766 39.0142 47.1039C49.2057 41.219 64.275 30.3665 65.1976 29.7003L46.4219 41.4041L49.9433 28.5265C50.4509 26.7895 51.2837 26.4036 52.4628 25.7241C54.7311 24.4261 63.4924 19.5431 69.4804 16.0851C74.6569 13.1003 77.1208 11.723 77.7024 10.4011V10.3376C77.7024 10.2848 77.7051 10.2319 77.7051 10.179C77.7051 10.0601 77.6998 9.94373 77.6919 9.81683C77.5993 8.76198 76.9701 7.48771 70.3687 3.50097C66.6384 1.24851 63.384 0.151367 60.4204 0.151367C57.4462 0.151367 54.9056 1.20621 52.0054 2.7898C48.3597 4.77524 31.2442 14.134 29.2429 15.863C23.1095 21.3276 19.0646 25.3223 16.5134 28.4419L16.3442 28.6454L16.3178 28.5767C15.0858 29.391 8.28878 34.0069 4.75676 36.7247C4.64837 36.8066 4.54526 36.8833 4.44744 36.9626C4.3787 37.0155 4.30997 37.0684 4.24652 37.1212C2.94052 38.8159 0.682777 43.5957 10.5412 49.2903Z" fill="#FAFAFA"/>
<path id="Vector_3" d="M3.13641 37.8889C3.24374 37.7731 3.39603 37.6293 3.58796 37.4654C3.72913 37.3441 3.88988 37.2114 4.06779 37.0675C4.24836 36.9235 4.44875 36.7656 4.66342 36.6017C4.70573 36.5679 4.75093 36.5367 4.79905 36.5028C4.24017 37.025 -1.19322 42.512 10.5399 49.2887C22.8882 56.4154 28.4995 53.1752 39.0134 47.1042C49.2054 41.2192 64.2747 30.3668 65.1976 29.7005L46.4224 41.4027L49.942 28.5265C50.4501 26.7877 51.2826 26.4038 52.4625 25.7236C54.7319 24.4252 63.4927 19.5423 69.4794 16.0848C75.4434 12.6443 77.8047 11.3428 77.8415 9.79883C77.8613 10.0331 77.8555 10.2588 77.8555 10.496C77.8555 11.9212 77.8555 12.5055 75.6173 14.0552C74.3105 14.9641 72.3922 16.2231 70.9358 17.1828C70.4335 17.513 70.456 18.2582 70.9752 18.5601L74.6415 20.677C76.2108 21.583 78.1809 21.4362 79.6006 20.3071L80.6845 18.9771L81.1052 18.6072C81.1842 18.5451 81.2574 18.4803 81.328 18.4097L81.3394 18.4012L80.6761 17.7776C80.7213 17.7945 81.1107 17.9471 81.5424 18.1755C81.7005 18.2601 81.8642 18.3534 82.0194 18.4578C82.2367 18.6016 82.454 18.7317 82.6602 18.9517C83.0242 19.3384 83.3518 20.0044 83.5633 21.5399C83.617 21.9351 83.6622 22.3613 83.7016 22.8073C83.7166 22.9818 83.7304 23.16 83.7436 23.3395C83.7724 23.7352 83.7957 24.1315 83.816 24.5291C83.8742 25.6802 83.9043 26.849 83.9321 27.8592C83.9337 27.9179 83.9355 27.9744 83.9371 28.0321C83.9498 28.4675 83.9628 28.873 83.9781 29.2286V29.2371C84.0035 31.2342 83.9554 33.9823 81.1697 35.591C80.6645 35.8818 80.941 35.7264 80.0041 36.2657C80.0041 36.0399 79.9956 35.8226 79.9731 35.6138C79.6654 32.2549 77.2522 30.8944 74.3224 32.588C74.1419 32.6895 73.961 32.8024 73.7834 32.9267C72.4285 33.8694 71.2121 35.32 70.3005 36.9769C69.7049 38.0634 69.2449 39.2349 68.9541 40.4119C68.8412 40.8861 68.7621 41.3575 68.7029 41.8204C68.6069 42.5966 68.6069 42.8478 68.6069 42.8478C67.3369 43.5817 66.0129 44.3465 64.6469 45.1367C64.6469 45.1367 64.6414 45.1367 64.6385 45.1396L64.6355 45.1425H64.6326C64.6297 45.1425 64.6297 45.1454 64.6271 45.1481C64.6242 45.1481 64.6215 45.151 64.6186 45.151C64.6102 45.1565 64.5962 45.165 64.5819 45.1735C64.5705 45.179 64.5594 45.1848 64.5451 45.1933C64.5422 45.1933 64.5422 45.1933 64.5396 45.1962C64.5282 45.2047 64.5142 45.2131 64.4973 45.2216C64.4833 45.2271 64.4719 45.233 64.4605 45.2414C64.4605 45.2414 64.4576 45.2414 64.4576 45.2443C64.4547 45.2472 64.4521 45.2499 64.4463 45.2499C64.4378 45.2528 64.4293 45.2583 64.4238 45.2639C64.4124 45.2694 64.404 45.2752 64.3929 45.2808C64.373 45.2922 64.3506 45.3035 64.3307 45.3176C64.3109 45.3289 64.2884 45.34 64.2686 45.3543C64.2461 45.3657 64.2234 45.3797 64.2009 45.3937V45.3908C64.1925 45.3963 64.1869 45.3992 64.1784 45.4048C64.1388 45.4273 64.0965 45.4526 64.0542 45.4754C64.0317 45.4894 64.0063 45.5037 63.981 45.5177C63.9556 45.5317 63.9302 45.546 63.9048 45.5629C63.8287 45.6081 63.7496 45.6504 63.6735 45.6956C63.6254 45.721 63.5775 45.7493 63.5268 45.7802C63.4816 45.8085 63.4337 45.8339 63.3885 45.8592C63.3517 45.882 63.315 45.9015 63.2785 45.9243C63.2756 45.9272 63.273 45.9272 63.2701 45.9298C63.2672 45.9298 63.2672 45.9298 63.2645 45.9327C63.2476 45.9412 63.2278 45.9526 63.2108 45.9637C63.191 45.975 63.1685 45.9861 63.1487 45.9975C63.1373 46.006 63.1233 46.0115 63.1149 46.0173C63.112 46.0173 63.112 46.0203 63.1093 46.0229C63.1038 46.0229 63.1009 46.0258 63.0953 46.0284C63.0699 46.0425 63.0475 46.0567 63.0218 46.0707C63.0189 46.0737 63.0163 46.0737 63.0134 46.0763C63.0134 46.0763 63.0104 46.0792 63.0078 46.0792C62.9063 46.1384 62.8019 46.2006 62.6974 46.2598C61.3341 47.0473 59.9482 47.846 58.5568 48.6505C58.0572 48.9384 57.5604 49.2263 57.0581 49.5171C56.6798 49.7315 56.2988 49.9546 55.9205 50.172C55.5395 50.3922 55.1583 50.6095 54.7803 50.8324C54.3964 51.0526 54.0181 51.2699 53.6371 51.4928C53.0669 51.8201 52.4969 52.1476 51.9295 52.4807C51.6218 52.6557 51.3143 52.8337 51.0095 53.0113C48.1926 54.6343 45.4154 56.2404 42.7566 57.7756C42.7566 57.5469 42.7426 57.3296 42.7257 57.1178C42.4153 53.759 40.0018 52.393 37.0721 54.0865C36.8912 54.191 36.7107 54.3067 36.533 54.4307C35.181 55.3679 33.9617 56.8241 33.0528 58.4809C32.4545 59.5648 31.9916 60.7389 31.7064 61.9159C31.5879 62.3873 31.5089 62.8558 31.4523 63.3242C31.3563 64.1004 31.3563 64.3487 31.3563 64.3487V64.3542C30.3996 64.9073 30.6536 64.7606 29.8124 65.2462C25.5251 67.7215 20.244 67.7329 15.9455 65.2801C13.3798 63.8181 10.7184 62.2966 9.14322 61.4049C5.38358 59.2653 0.743576 55.9942 0.743576 51.4272V45.0117C0.74305 42.1652 1.3979 39.7322 3.13641 37.8889Z" fill="#E0E0E0"/>
<path id="Vector_4" d="M49.565 8.36584C48.1128 9.17614 46.658 9.98221 45.1865 10.7595C46.5951 9.87382 48.0206 9.01699 49.4484 8.16439C50.8761 7.31126 47.3467 9.35195 48.7804 8.50966C50.2265 7.68852 51.6657 6.85601 53.1179 6.04544L55.2993 4.83488C56.0318 4.44096 56.7594 4.03806 57.4967 3.65234C56.794 4.09781 56.0813 4.52636 55.3738 4.96416L53.2348 6.24795C51.8069 7.10029 50.3661 7.93069 48.9319 8.77245C47.4857 9.59306 51.0175 7.55607 49.565 8.36584ZM69.8408 10.779C69.1381 11.2245 68.4254 11.6531 67.7179 12.0909L65.5789 13.3746C64.151 14.227 62.7102 15.0574 61.2759 15.8991C59.8296 16.7195 63.3613 14.6828 61.9086 15.4925C60.4564 16.3028 59.0015 17.1089 57.53 17.8862C58.9389 17.0005 60.3641 16.1437 61.7923 15.2911C63.2199 14.438 59.6905 16.4786 61.1242 15.6364C62.5703 14.8152 64.0098 13.9827 65.462 13.1721L67.6434 11.9616C68.3759 11.5679 69.1035 11.165 69.8408 10.779ZM52.6355 10.9107C51.1891 11.731 54.7206 9.69431 53.2681 10.5041C51.8159 11.3144 50.3611 12.1205 48.8896 12.8977C50.2984 12.0121 51.7239 11.1552 53.1518 10.3026C54.5794 9.4495 51.05 11.4902 52.4837 10.6479C53.9298 9.82676 55.3693 8.99426 56.8215 8.18396L59.0029 6.97339C59.7354 6.57948 60.463 6.17657 61.2003 5.79085C60.4976 6.23632 59.7849 6.66487 59.0774 7.10241L56.9384 8.3862C55.5102 9.23854 54.0697 10.0689 52.6355 10.9107ZM58.2055 13.3546C56.7533 14.1649 55.2985 14.9709 53.827 15.7482C55.2358 14.8625 56.6611 14.0057 58.0892 13.1531C59.5168 12.3 55.9874 14.3407 57.4211 13.4984C58.8672 12.6772 60.3065 11.8447 61.7589 11.0342L63.9403 9.82359C64.6729 9.42968 65.4004 9.02677 66.1378 8.64105C65.4351 9.08652 64.7223 9.51507 64.0148 9.95287L61.8758 11.2367C60.4479 12.089 59.0071 12.9194 57.5729 13.7612C56.1265 14.5815 59.6582 12.5448 58.2055 13.3546Z" fill="#E0E0E0"/>
<path id="Vector_5" d="M3.1357 37.8883C3.24515 37.7728 3.39716 37.63 3.58856 37.4658C3.69352 37.3746 3.81381 37.2747 3.94124 37.1713C3.9838 37.1367 4.02399 37.1034 4.06866 37.0679C4.15829 36.9966 4.2532 36.9212 4.35286 36.8435C4.45226 36.7655 4.55643 36.6851 4.6643 36.6029C8.52651 33.6311 16.3934 28.3434 16.3934 28.3434L16.3942 28.3452C19.3362 24.7519 23.926 20.395 29.1412 15.7479C31.1195 14.04 47.7895 4.91653 51.9312 2.65588C54.6844 1.15372 57.3059 0 60.4205 0C63.2154 0 66.4077 0.929532 70.4465 3.36996C76.8954 7.26522 77.7398 8.62912 77.8426 9.80214C77.8426 9.80135 77.8426 9.80082 77.8426 9.80003C77.8429 9.80214 77.8426 9.80425 77.8429 9.80663C77.863 10.0377 77.8548 10.2616 77.8548 10.4959C77.8548 11.2792 77.8521 11.8095 77.4807 12.3856C77.2798 12.4789 77.0762 12.5667 76.8737 12.6571C76.8845 12.646 76.8964 12.6344 76.9068 12.6235C77.0262 12.4964 77.1238 12.3761 77.2047 12.256C77.551 11.7413 77.551 11.2726 77.551 10.4961L77.5518 10.3375C77.5531 10.1627 77.5545 9.99778 77.5402 9.83281L77.5394 9.82435C77.4524 8.85278 76.8137 7.5711 70.2892 3.63036C66.5854 1.39218 63.3571 0.304293 60.4205 0.304293C57.4785 0.304293 54.9572 1.35121 52.0766 2.9229C47.0223 5.68189 31.2361 14.3412 29.3398 15.9784C23.2172 21.4343 19.177 25.4263 16.6293 28.5382L16.3017 28.9382L16.2486 28.8042C14.6248 29.881 8.25421 34.2243 4.84936 36.8443C4.74123 36.9265 4.63838 37.0061 4.53977 37.0833C4.4409 37.1605 4.34679 37.2353 4.25769 37.3061L4.17468 37.3733L4.13238 37.4077C4.0076 37.5089 3.88995 37.6065 3.78738 37.6958C3.61051 37.8476 3.46166 37.9861 3.35591 38.0979C1.80299 39.746 1.04768 42.0088 1.04768 45.015V51.4297C1.04768 55.9288 5.75351 59.1274 9.2932 61.142L10.2857 61.7061L11.8848 62.6172L12.1561 62.7718L12.3224 62.8667L13.2305 63.3849L14.1711 63.9218L16.0944 65.0201C16.6147 65.3167 17.1593 65.5813 17.7129 65.8066C18.8072 66.2518 19.9567 66.5529 21.1294 66.7017C21.697 66.7736 22.275 66.8104 22.8473 66.8104C23.1506 66.8104 23.4572 66.8001 23.7597 66.78C24.6376 66.721 25.5138 66.5764 26.3632 66.3496C26.6471 66.2737 26.9327 66.1875 27.2118 66.0931C28.0602 65.8063 28.884 65.4333 29.6607 64.9846L30.6328 64.4242L30.8734 64.2854L31.0598 64.1775C31.0698 64.0186 31.0936 63.7415 31.1486 63.2905C31.2139 62.761 31.2996 62.2878 31.4106 61.8436C31.6985 60.6576 32.1744 59.4444 32.7856 58.3367C33.7416 56.5942 35.0103 55.1188 36.3578 54.1832C36.5593 54.0433 36.7438 53.9262 36.9222 53.8249C37.8021 53.3165 38.6579 53.0582 39.4639 53.0582C41.4319 53.0582 42.7971 54.6035 43.0269 57.091C43.0319 57.1494 43.0364 57.2068 43.0401 57.2626L49.563 53.4958L49.6119 53.4675L49.872 53.3173L50.856 52.75C51.1603 52.5723 51.4659 52.3968 51.7718 52.2212C52.0608 52.0528 52.3465 51.8881 52.6323 51.7232L52.8541 51.5952L56.8485 49.2886L56.876 49.2727L56.9078 49.2545L56.9744 49.2159L57.0325 49.1823L63.948 45.1889L64.0678 45.1197L64.2055 45.0404L64.2851 44.9944L64.3562 44.9531L64.0485 45.1308L64.0479 45.13L64.9611 44.6036L65.0666 44.5428L65.1818 44.4765L66.5901 43.663L66.721 43.5874L68.3099 42.6697C68.3205 42.5103 68.345 42.233 68.4014 41.7849C68.4667 41.2596 68.551 40.7871 68.6596 40.3409C68.9513 39.153 69.4269 37.9401 70.0347 36.8326C70.5565 35.8846 71.1826 35.0042 71.8654 34.2471C71.8557 34.4134 71.8438 34.5797 71.8324 34.746C71.2624 35.4183 70.745 36.1725 70.3011 36.9788C69.7055 38.0636 69.2436 39.2366 68.955 40.4125C68.8394 40.8865 68.7604 41.3576 68.7027 41.8224C68.6054 42.5973 68.6055 42.8495 68.6055 42.8495L66.8728 43.8499C66.366 44.1428 65.8544 44.4384 65.3333 44.739C65.2596 44.7815 65.1845 44.8249 65.1104 44.8675L65.1126 44.8664C64.8099 45.0412 64.5064 45.2162 64.1992 45.393C64.5056 45.2167 64.8083 45.0419 65.1104 44.8677L64.5079 45.2156C64.4569 45.2452 64.4075 45.2738 64.3565 45.3034C64.2713 45.3523 64.1849 45.4025 64.0995 45.4517L57.1848 49.4445C57.1423 49.4694 57.1 49.4935 57.0574 49.5183C57.0384 49.5291 57.0191 49.5405 57 49.5513L53.0054 51.858C52.6461 52.0653 52.2865 52.2723 51.9278 52.4811C51.6208 52.6575 51.3139 52.8335 51.007 53.013C50.5906 53.2531 50.1774 53.4916 49.7628 53.7305L49.776 53.7229C49.7552 53.7348 49.7348 53.7467 49.7142 53.7586L42.7538 57.7778C42.7538 57.5499 42.7416 57.331 42.7234 57.1185C42.5037 54.7399 41.2291 53.3615 39.4629 53.3615C38.7358 53.3615 37.9255 53.5952 37.0711 54.0888C36.8887 54.1921 36.7094 54.3077 36.5302 54.4322C35.1779 55.3712 33.9594 56.8266 33.0508 58.4829C32.452 59.5679 31.9901 60.7407 31.7046 61.9168C31.5862 62.3909 31.5071 62.8588 31.4495 63.3267C31.3554 64.1016 31.3554 64.3509 31.3554 64.3509V64.357C31.1161 64.4953 30.1268 65.0663 29.8122 65.2474C29.0083 65.7119 28.1694 66.0894 27.3086 66.3805C27.0218 66.4775 26.7323 66.565 26.4409 66.6428C25.5669 66.8762 24.6755 67.0227 23.7795 67.0827C23.4689 67.1036 23.158 67.1139 22.8468 67.1139C22.2601 67.1139 21.6735 67.0769 21.0906 67.0028C19.9009 66.8519 18.7263 66.5468 17.5979 66.0879C17.0335 65.8584 16.4807 65.5903 15.9432 65.2839C15.3021 64.9177 14.6547 64.5481 14.0199 64.1857C13.7024 64.0046 13.3883 63.8251 13.0793 63.6487C12.7705 63.4724 12.467 63.2992 12.1712 63.1306C12.0234 63.0462 11.8774 62.963 11.7336 62.881C11.1589 62.5532 10.6196 62.246 10.1344 61.97C9.77065 61.763 9.43728 61.5734 9.14198 61.4058C5.38313 59.2665 0.742859 55.9967 0.742859 51.4294V45.0147C0.744179 42.164 1.39745 39.7328 3.1357 37.8883Z" fill="#E0E0E0"/>
</g>
<path id="Vector_6" d="M29.5225 41.3046C28.2061 41.8497 26.9308 42.4805 25.6846 43.1604C24.4399 43.8431 23.2129 44.5598 22.0412 45.3611C20.8547 46.1389 20.5941 46.3073 19.4906 47.2006C18.3702 48.0749 17.3251 49.0382 16.2734 50.0008L17.006 49.2222C17.2521 48.9645 17.4943 48.7014 17.7563 48.4593C18.2753 47.9696 18.7934 47.4776 19.3425 47.0211C20.4209 46.0836 20.6929 45.9123 21.8734 45.1081C23.0662 44.3213 24.3011 43.5972 25.5759 42.9534C26.2136 42.6322 26.8623 42.333 27.5161 42.0474C28.1776 41.7794 28.8399 41.511 29.5225 41.3046ZM18.616 34.8047C17.4689 35.588 16.3586 36.4184 15.2728 37.2784C14.1886 38.1403 13.1168 39.018 12.0948 39.9525C11.0547 40.8662 10.8897 40.9804 9.91686 41.966C8.93048 42.9397 8.00491 43.971 7.06718 44.9968C7.49229 44.4482 7.91476 43.8951 8.36367 43.3643C8.8168 42.8371 9.27099 42.31 9.74924 41.8045C10.6907 40.7792 10.8644 40.6629 11.8928 39.7257C12.9357 38.8044 14.012 37.9198 15.1305 37.0926C15.6905 36.6799 16.2605 36.2809 16.8365 35.8915C17.4219 35.5161 18.0059 35.1378 18.616 34.8047Z" fill="#E0E0E0"/>
</g>
<g id="XMLID_1080_">
<path id="XMLID_1084_" d="M19.914 24.6848L19.7144 25.5175C19.2542 26.3794 18.2366 27.4678 17.8712 27.3777C17.545 27.2973 17.3454 26.8225 17.2431 26.2356V26.2282C17.1944 25.9604 17.1675 25.6682 17.1579 25.3785C17.1262 24.4555 17.5378 22.3033 18.8185 21.7312C19.1106 21.6022 19.3736 21.7045 19.578 21.9017C19.7485 22.0672 19.8799 22.2962 19.9481 22.5129C20.1623 23.1607 19.9431 24.6507 19.914 24.6848Z" fill="#263238"/>
<path id="XMLID_1082_" d="M19.7139 25.5175C19.2536 26.3794 18.236 27.4678 17.8707 27.3777C17.5444 27.2973 17.3448 26.8225 17.2425 26.2356V26.2282C17.1939 25.9604 17.1669 25.6682 17.1574 25.3785C17.1257 24.4555 17.5373 22.3033 18.8179 21.7312C19.11 21.6022 19.3731 21.7045 19.5774 21.9017L19.4022 22.2985C18.5062 22.6808 18.2651 24.0637 18.3479 25.1157C18.4282 26.1676 19.2002 26.0606 19.7139 25.5175Z" fill="#455A64"/>
<path id="XMLID_1081_" d="M19.9463 22.5128C19.6224 22.1697 18.819 22.1525 18.142 23.0825C17.4652 24.0126 17.2439 25.6083 17.2415 26.2267C17.1929 25.9589 17.1659 25.6668 17.1561 25.377C17.1244 24.4541 17.5347 22.3018 18.8156 21.7297C19.3515 21.491 19.793 22.038 19.9463 22.5128Z" fill="#37474F"/>
</g>
<path id="Vector_7" d="M70.9751 18.5614L74.6414 20.6782C76.2107 21.5842 78.29 21.5446 79.6005 20.3084C80.911 19.0722 81.4805 18.5352 81.4805 18.5352C80.9602 17.6382 78.9943 14.3346 77.219 12.7314C76.772 13.2533 76.0603 13.7514 75.6172 14.0562C74.3104 14.9651 72.3921 16.2241 70.9357 17.1837C70.4334 17.5142 70.4559 18.2592 70.9751 18.5614Z" fill="#37474F"/>
<g id="Group_4">
<path id="Vector_8" d="M42.3663 46.351C41.5824 46.8464 40.8903 47.2852 40.6195 47.4571C40.5426 47.5057 40.4961 47.588 40.4921 47.6789L40.4527 48.5437C40.4466 48.6806 40.5965 48.7686 40.7131 48.6959L42.454 47.6091C42.5315 47.5607 42.5804 47.4774 42.5849 47.386L42.6277 46.5027C42.6343 46.3652 42.4828 46.2772 42.3663 46.351Z" fill="#BA68C8"/>
<path id="Vector_9" d="M68.6064 42.8496V44.0311L42.7548 58.9589V57.7774L68.6064 42.8496Z" fill="#37474F"/>
<g id="Group_5" opacity="0.2">
<path id="Vector_10" d="M60.8184 46.7732C60.8163 46.7732 60.8142 46.7732 60.8124 46.773C60.7494 46.7698 60.7013 46.7161 60.705 46.6532C60.7093 46.5771 61.1169 38.9666 60.8956 33.5686C60.8933 33.506 60.9419 33.4528 61.0048 33.4502C61.0067 33.4502 61.008 33.4502 61.0096 33.4502C61.0704 33.4502 61.1209 33.498 61.1235 33.5596C61.3453 38.9687 60.9366 46.5895 60.9324 46.6659C60.929 46.7265 60.8787 46.7732 60.8184 46.7732Z" fill="black"/>
</g>
<path id="Vector_11" opacity="0.2" d="M73.8705 30.3C72.2904 30.8948 70.9289 32.0033 69.8333 33.2739C68.7089 34.5778 67.8595 36.1022 67.2819 37.7214C66.9569 38.6322 66.6378 39.6231 66.617 40.5965C66.6151 40.6856 66.7639 40.7665 66.7996 40.6594C66.9419 40.2335 67.0339 39.7946 67.1481 39.3608C67.2589 38.9397 67.3852 38.522 67.5259 38.1098C67.8093 37.2799 68.1638 36.4728 68.5876 35.7048C69.3812 34.2671 70.4321 32.9802 71.7006 31.9351C72.3901 31.3672 73.1533 30.88 73.9247 30.4314C73.9816 30.3988 73.9343 30.2759 73.8705 30.3Z" fill="black"/>
</g>
<g id="Group_6">
<path id="Vector_12" d="M49.9414 28.525L46.4226 41.4034L44.1284 42.7284C41.6547 44.1536 38.6495 44.3115 36.0452 43.1416C33.0033 41.7743 28.8434 39.805 25.437 37.8391C21.1341 35.3564 17.8339 32.7581 16.2294 31.4119C15.5883 30.871 15.3784 29.9716 15.7097 29.2028C18.5934 25.4562 23.5041 20.7701 29.1411 15.7471C27.1628 17.4549 33.052 20.8582 37.1667 23.2315C41.2779 25.6079 46.2859 28.4978 48.8903 28.5736C49.2485 28.5858 49.5948 28.5676 49.9414 28.525Z" fill="#37474F"/>
<g id="Group_7">
<path id="Vector_13" d="M70.0985 26.4125L46.4227 41.4043L49.9415 28.5259C52.1022 28.2616 54.1199 26.9823 57.5292 25.0132C60.5346 23.2781 61.1249 22.9363 63.6259 21.4928C64.419 21.0371 65.3914 21.0371 66.1816 21.4957L70.0531 23.7292C71.0741 24.3187 71.1013 25.7865 70.0985 26.4125Z" fill="#263238"/>
<g id="Group_8">
<path id="Vector_14" d="M48.89 28.575C48.632 28.5676 48.3446 28.5253 48.0424 28.4658C48.2074 29.0607 48.0131 29.84 47.6556 31.2528C47.0582 33.615 45.3011 39.3611 44.8189 40.9043C44.3396 42.4379 42.8837 43.2762 41.8238 43.6556C42.6223 43.4573 43.3987 43.1501 44.1284 42.7298L46.4226 41.4047L49.9414 28.5264C49.5948 28.5689 49.2485 28.5872 48.89 28.575Z" fill="black"/>
<path id="Vector_15" d="M59.4483 33.2817L61.5146 31.9935L60.3858 23.3633C59.8816 23.6544 59.3949 23.9354 58.9362 24.2003L59.4483 33.2817Z" fill="black"/>
</g>
</g>
<path id="Vector_16" d="M29.1528 17.5664C27.2094 18.7934 23.6377 22.3841 21.7345 24.5197C19.5249 26.999 18.5428 29.2868 21.6066 27.3704C23.9925 25.8778 30.066 22.0962 32.6367 20.4957C31.1063 19.4855 29.7884 18.465 29.1528 17.5664Z" fill="#455A64"/>
</g>
<g id="Group_9">
<g id="Group_10">
<path id="Vector_17" d="M30.2939 62.8303V66.0454C26.9118 68.3488 24.6388 68.3732 22.8883 68.4065C20.0746 68.4612 16.5495 66.65 10.8427 63.4077C6.56413 60.9768 2.5803 57.7404 0.875624 55.9688L0.857382 55.9506C0.298235 55.3642 0.000551224 54.574 0.000551224 53.7626V51.5625C0.000551224 52.3191 5.16349 56.9623 10.843 60.1927C16.5498 63.4349 20.0749 65.2433 22.8886 65.1914C24.6388 65.1552 26.9118 65.1338 30.2939 62.8303Z" fill="#37474F"/>
<path id="Vector_18" d="M30.2939 62.8305C26.9118 65.134 24.6388 65.1552 22.8883 65.1917C20.0746 65.2432 16.5495 63.4352 10.8427 60.1929C5.16322 56.9625 0.000289917 52.3194 0.000289917 51.5627V51.5537C0.000289917 50.253 0.744759 50.0859 0.744759 50.0859V51.0522C0.744759 51.0522 3.25789 54.1488 9.84896 58.2421C16.665 62.4752 19.7674 64.0734 23.2164 64.0734C26.6686 64.0734 29.2909 62.1194 29.2909 62.1194L30.2939 62.8305Z" fill="#455A64"/>
</g>
<path id="Vector_19" opacity="0.2" d="M18.9968 53.4933L17.22 55.4108C16.765 55.9017 16.0615 56.0738 15.4331 55.8438C14.3153 55.4348 12.3687 54.6214 9.85454 53.1705C7.47334 51.7944 5.99972 50.6978 5.18784 50.0258C4.66887 49.5962 4.35612 48.9693 4.32175 48.2963L4.17503 45.4228C4.16947 45.3112 4.30933 45.2546 4.38097 45.3403C5.53099 46.7195 7.32344 48.213 10.0277 49.7757C13.3366 51.6863 16.2468 52.8028 18.9331 53.2998C19.0238 53.3172 19.0595 53.4256 18.9968 53.4933Z" fill="black"/>
<path id="Vector_20" d="M82.9994 22.8116C83.2308 22.837 83.4737 22.8426 83.7021 22.8087C83.6628 22.3627 83.6175 21.9366 83.5639 21.5413C83.3521 20.0059 83.0248 19.3399 82.6608 18.9531C82.6439 18.973 82.6269 18.987 82.61 19.001C82.057 19.4893 81.3061 20.3162 80.973 21.0332C80.9109 21.163 80.8686 21.3042 80.8461 21.4509C80.7047 22.4955 82.2798 22.727 82.9994 22.8116Z" fill="#BA68C8"/>
<path id="Vector_21" d="M4.06749 51.0442C4.00853 50.9848 4.00854 50.8885 4.06802 50.8293C4.12751 50.7706 4.22347 50.7701 4.28295 50.8298C7.07314 53.6343 12.7854 56.5987 16.3706 57.6081C16.4512 57.6311 16.4983 57.7149 16.4755 57.7955C16.4565 57.8627 16.3957 57.9063 16.3294 57.9063C16.3156 57.9063 16.3021 57.9044 16.2881 57.9007C12.6662 56.8808 6.89152 53.8823 4.06749 51.0442ZM16.4758 58.9992C16.4568 59.0664 16.396 59.11 16.3296 59.11C16.3159 59.11 16.3024 59.1081 16.2884 59.1044C12.6665 58.0845 6.89152 55.086 4.06776 52.2479C4.0088 52.1887 4.0088 52.0922 4.06828 52.033C4.12776 51.9743 4.22374 51.9735 4.28322 52.0335C7.07341 54.838 12.7857 57.8024 16.3709 58.8118C16.4515 58.8345 16.4983 58.9186 16.4758 58.9992Z" fill="#455A64"/>
<g id="Group_11">
<g id="Group_12">
<g id="Group_13">
<path id="Vector_22" d="M19.234 54.1715C19.6022 53.7392 20.1593 53.5182 20.7242 53.5761C22.6774 53.7768 25.893 53.7739 27.9781 53.1642C30.4045 52.4549 30.8526 52.3962 30.4045 53.6948C29.9564 54.9934 28.7831 56.7155 26.6694 57.0809C22.8871 57.7344 19.8513 57.3506 18.3335 56.6357C17.5724 56.2775 18.5117 55.0196 19.234 54.1715Z" fill="#BA68C8"/>
<path id="Vector_23" opacity="0.8" d="M19.234 54.1715C19.6022 53.7392 20.1593 53.5182 20.7242 53.5761C22.6774 53.7768 25.893 53.7739 27.9781 53.1642C30.4045 52.4549 30.8526 52.3962 30.4045 53.6948C29.9564 54.9934 28.7831 56.7155 26.6694 57.0809C22.8871 57.7344 19.8513 57.3506 18.3335 56.6357C17.5724 56.2775 18.5117 55.0196 19.234 54.1715Z" fill="#F9FAFB"/>
<path id="Vector_24" d="M26.669 57.0806C28.7824 56.7153 29.9559 54.9932 30.4038 53.6946C30.826 52.4708 30.4508 52.4528 28.3763 53.0484C27.5525 54.6175 26.4495 56.0401 24.9416 56.9397C24.6923 57.0883 24.434 57.2245 24.1849 57.3736C24.9677 57.3247 25.7973 57.2313 26.669 57.0806Z" fill="#BA68C8"/>
</g>
<g id="Group_14">
<path id="Vector_25" d="M3.57321 45.0873C3.56766 44.6146 3.43256 44.1559 3.19806 43.7454C2.6019 42.7024 2.22994 41.2473 2.30211 40.022C2.3883 38.5605 1.75618 38.8479 1.4117 39.4224C1.06696 39.9968 0.188181 42.083 0.745743 44.0761C1.20972 45.7345 2.45465 47.4323 3.2972 48.3661C3.44684 48.5318 3.72126 48.4208 3.70751 48.1979C3.65939 47.4146 3.58458 46.065 3.57321 45.0873Z" fill="#BA68C8"/>
<path id="Vector_26" opacity="0.8" d="M3.57321 45.0873C3.56766 44.6146 3.43256 44.1559 3.19806 43.7454C2.6019 42.7024 2.22994 41.2473 2.30211 40.022C2.3883 38.5605 1.75618 38.8479 1.4117 39.4224C1.06696 39.9968 0.188181 42.083 0.745743 44.0761C1.20972 45.7345 2.45465 47.4323 3.2972 48.3661C3.44684 48.5318 3.72126 48.4208 3.70751 48.1979C3.65939 47.4146 3.58458 46.065 3.57321 45.0873Z" fill="#F9FAFB"/>
</g>
</g>
<path id="Vector_27" d="M2.1448 48.325C2.38696 48.8427 2.51439 49.3632 2.50831 49.9414C2.50673 50.0942 2.4943 50.2534 2.41605 50.3848C2.24843 50.6663 1.91453 50.5508 1.67157 50.4442C1.54837 50.39 1.43311 50.3152 1.32392 50.2356C1.10793 50.0783 0.916527 49.9073 0.745743 49.718V46.4609C0.831135 46.5313 0.917318 46.6166 1.00747 46.7052C1.48043 47.1708 1.86377 47.7238 2.1448 48.325ZM26.8261 61.5593C26.3907 62.0552 25.7781 62.397 25.1373 62.5427C24.2738 62.7386 23.3771 62.6249 22.5324 62.3949C19.9461 61.73 19.8258 60.5745 22.6678 59.8414C24.102 59.4715 26.3428 59.1923 27.2073 59.7642C27.7866 60.1478 27.1314 61.2113 26.8261 61.5593Z" fill="#BA68C8"/>
</g>
</g>
<g id="XMLID_280_">
<path id="XMLID_392_" d="M51.7824 40.8508C51.3711 42.8109 49.1992 43.2249 47.5726 43.1763C46.7104 43.1519 46.0019 42.9936 45.7854 42.8696C45.1572 42.5069 45.447 41.7545 45.783 41.3185C46.3527 40.5807 48.9095 39.1004 50.514 39.0494C51.4538 39.0174 52.0698 39.475 51.7824 40.8508Z" fill="#263238"/>
<path id="XMLID_00000034785515591890038090000013787013525836267418_" d="M51.7824 40.8511C51.3711 42.8111 49.1992 43.2251 47.5726 43.1765C46.7104 43.1522 46.0019 42.9938 45.7854 42.8698C45.1572 42.5071 45.447 41.7547 45.783 41.3188C45.4666 41.9178 47.1416 42.2879 48.6343 41.7521C50.1269 41.2138 51.2394 40.0622 50.514 39.0494C51.4538 39.0177 52.0698 39.4753 51.7824 40.8511Z" fill="#455A64"/>
<path id="XMLID_385_" d="M51.7824 40.8511C51.3711 42.8111 49.1992 43.2251 47.5726 43.1765C49.1918 43.1302 50.4822 42.1978 50.9692 41.18C51.4538 40.1645 51.0861 39.1784 50.514 39.0494C51.4538 39.0177 52.0698 39.4753 51.7824 40.8511Z" fill="#37474F"/>
</g>
<g id="Group_15">
<path id="Vector_28" d="M82.8478 35.7024L81.1714 36.6692V33.3904C83.5939 31.9916 83.2682 32.3152 83.9074 31.4341C84.3056 30.8855 84.3418 30.4226 84.3418 30.4004C84.3418 33.3392 84.1795 34.9333 82.8478 35.7024Z" fill="#263238"/>
<path id="Vector_29" d="M84.3418 30.4002C84.3418 30.4224 84.3053 30.8851 83.9072 31.4339C83.2679 32.315 83.5939 31.9915 81.1712 33.3903L80.2456 32.8433C80.2456 32.8433 80.6168 32.6111 82.0542 31.7871C83.4916 30.963 83.821 30.3365 83.9032 29.7945C83.9611 29.4122 83.978 29.2383 83.978 29.2383C84.2855 29.4876 84.3418 29.8321 84.3418 30.4002Z" fill="#455A64"/>
<path id="Vector_30" d="M80.2453 32.8438V36.1349L81.1709 36.6695V33.3907L80.2453 32.8438Z" fill="#37474F"/>
</g>
</g>
</svg>
